<svg xmlns="http://www.w3.org/2000/svg" width="360" height="360" viewBox="0 0 360 360">
<rect width="360" height="360" fill="white"/><rect x="35" y="35" width="80" height="80" fill="none" stroke="#111" stroke-width="14"/><rect x="245" y="35" width="80" height="80" fill="none" stroke="#111" stroke-width="14"/><rect x="35" y="245" width="80" height="80" fill="none" stroke="#111" stroke-width="14"/>
<text x="180" y="170" text-anchor="middle" font-size="22" font-family="Arial" font-weight="700" fill="#f26b21">VCB</text>
<text x="180" y="204" text-anchor="middle" font-size="18" font-family="Arial" fill="#d43">202.202.6868</text>
<g fill="#111"><rect x="20" y="128" width="9" height="9"/><rect x="39" y="157" width="9" height="9"/><rect x="58" y="186" width="9" height="9"/><rect x="77" y="215" width="9" height="9"/><rect x="96" y="136" width="9" height="9"/><rect x="115" y="165" width="9" height="9"/><rect x="134" y="194" width="9" height="9"/><rect x="153" y="223" width="9" height="9"/><rect x="172" y="144" width="9" height="9"/><rect x="191" y="173" width="9" height="9"/><rect x="210" y="202" width="9" height="9"/><rect x="229" y="231" width="9" height="9"/><rect x="248" y="152" width="9" height="9"/><rect x="267" y="181" width="9" height="9"/><rect x="286" y="210" width="9" height="9"/><rect x="305" y="131" width="9" height="9"/><rect x="324" y="160" width="9" height="9"/><rect x="23" y="189" width="9" height="9"/><rect x="42" y="218" width="9" height="9"/><rect x="61" y="139" width="9" height="9"/><rect x="80" y="168" width="9" height="9"/><rect x="99" y="197" width="9" height="9"/><rect x="118" y="226" width="9" height="9"/><rect x="137" y="147" width="9" height="9"/><rect x="156" y="176" width="9" height="9"/><rect x="175" y="205" width="9" height="9"/><rect x="194" y="234" width="9" height="9"/><rect x="213" y="155" width="9" height="9"/><rect x="232" y="184" width="9" height="9"/><rect x="251" y="213" width="9" height="9"/><rect x="270" y="134" width="9" height="9"/><rect x="289" y="163" width="9" height="9"/><rect x="308" y="192" width="9" height="9"/><rect x="327" y="221" width="9" height="9"/><rect x="26" y="142" width="9" height="9"/><rect x="45" y="171" width="9" height="9"/><rect x="64" y="200" width="9" height="9"/><rect x="83" y="229" width="9" height="9"/><rect x="102" y="150" width="9" height="9"/><rect x="121" y="179" width="9" height="9"/><rect x="140" y="208" width="9" height="9"/><rect x="159" y="129" width="9" height="9"/><rect x="178" y="158" width="9" height="9"/><rect x="197" y="187" width="9" height="9"/><rect x="216" y="216" width="9" height="9"/><rect x="235" y="137" width="9" height="9"/><rect x="254" y="166" width="9" height="9"/><rect x="273" y="195" width="9" height="9"/><rect x="292" y="224" width="9" height="9"/><rect x="311" y="145" width="9" height="9"/><rect x="330" y="174" width="9" height="9"/><rect x="29" y="203" width="9" height="9"/><rect x="48" y="232" width="9" height="9"/><rect x="67" y="153" width="9" height="9"/><rect x="86" y="182" width="9" height="9"/><rect x="105" y="211" width="9" height="9"/><rect x="124" y="132" width="9" height="9"/><rect x="143" y="161" width="9" height="9"/><rect x="162" y="190" width="9" height="9"/><rect x="181" y="219" width="9" height="9"/><rect x="200" y="140" width="9" height="9"/><rect x="219" y="169" width="9" height="9"/><rect x="238" y="198" width="9" height="9"/><rect x="257" y="227" width="9" height="9"/><rect x="276" y="148" width="9" height="9"/><rect x="295" y="177" width="9" height="9"/><rect x="314" y="206" width="9" height="9"/><rect x="333" y="235" width="9" height="9"/><rect x="32" y="156" width="9" height="9"/><rect x="51" y="185" width="9" height="9"/><rect x="70" y="214" width="9" height="9"/><rect x="89" y="135" width="9" height="9"/><rect x="108" y="164" width="9" height="9"/><rect x="127" y="193" width="9" height="9"/><rect x="146" y="222" width="9" height="9"/><rect x="165" y="143" width="9" height="9"/><rect x="184" y="172" width="9" height="9"/><rect x="203" y="201" width="9" height="9"/><rect x="222" y="230" width="9" height="9"/><rect x="241" y="151" width="9" height="9"/><rect x="260" y="180" width="9" height="9"/><rect x="279" y="209" width="9" height="9"/><rect x="298" y="130" width="9" height="9"/><rect x="317" y="159" width="9" height="9"/><rect x="336" y="188" width="9" height="9"/><rect x="35" y="217" width="9" height="9"/><rect x="54" y="138" width="9" height="9"/><rect x="73" y="167" width="9" height="9"/><rect x="92" y="196" width="9" height="9"/><rect x="111" y="225" width="9" height="9"/><rect x="130" y="146" width="9" height="9"/><rect x="149" y="175" width="9" height="9"/><rect x="168" y="204" width="9" height="9"/><rect x="187" y="233" width="9" height="9"/><rect x="206" y="154" width="9" height="9"/><rect x="225" y="183" width="9" height="9"/><rect x="244" y="212" width="9" height="9"/><rect x="263" y="133" width="9" height="9"/><rect x="282" y="162" width="9" height="9"/><rect x="301" y="191" width="9" height="9"/><rect x="320" y="220" width="9" height="9"/><rect x="339" y="141" width="9" height="9"/><rect x="38" y="170" width="9" height="9"/><rect x="57" y="199" width="9" height="9"/><rect x="76" y="228" width="9" height="9"/><rect x="95" y="149" width="9" height="9"/><rect x="114" y="178" width="9" height="9"/><rect x="133" y="207" width="9" height="9"/><rect x="152" y="128" width="9" height="9"/><rect x="171" y="157" width="9" height="9"/><rect x="190" y="186" width="9" height="9"/><rect x="209" y="215" width="9" height="9"/><rect x="228" y="136" width="9" height="9"/><rect x="247" y="165" width="9" height="9"/><rect x="266" y="194" width="9" height="9"/><rect x="285" y="223" width="9" height="9"/><rect x="304" y="144" width="9" height="9"/><rect x="323" y="173" width="9" height="9"/></g></svg>